# xmcd
#
# Track frame offsets:
#	150
#	52520
#	120316
#
# Disc length: 1932 seconds
#
# Revision: 0
# Processed by: cddbd v1.5.2PL0 Copyright (c) Steve Scherf et al.
# Submitted via: EasyCDDAExtractor 2010.6.0.0
#
DISCID=14078a03
DTITLE=Mike Patton and Ictus Ensemble - Luciano Bero - Laborintus II
DYEAR=2012
DGENRE=
TTITLE0=Part One
TTITLE1=Part Two
TTITLE2=Part Three
EXTD=
EXTT0=
EXTT1=
EXTT2=
PLAYORDER=
